Coordinates
version=1
nRows=13
nColumns=40
inDegrees=yes

Units are S.I. units (second, meters, Newtons, ...)
If the header above contains a line with 'inDegrees', this indicates whether rotational values are in degrees (yes) or radians (no).

endheader
time	pelvis_tilt	pelvis_list	pelvis_rotation	pelvis_tx	pelvis_ty	pelvis_tz	hip_flexion_r	hip_adduction_r	hip_rotation_r	knee_angle_r	knee_angle_r_beta	ankle_angle_r	subtalar_angle_r	mtp_angle_r	hip_flexion_l	hip_adduction_l	hip_rotation_l	knee_angle_l	knee_angle_l_beta	ankle_angle_l	subtalar_angle_l	mtp_angle_l	lumbar_extension	lumbar_bending	lumbar_rotation	arm_flex_r	arm_add_r	arm_rot_r	elbow_flex_r	pro_sup_r	wrist_flex_r	wrist_dev_r	arm_flex_l	arm_add_l	arm_rot_l	elbow_flex_l	pro_sup_l	wrist_flex_l	wrist_dev_l
      6.12500000	      4.87029561	     -4.12163914	     -0.50346594	     -0.35635242	      0.84632624	     -1.02943477	     54.41343094	      3.13001321	     -0.11522008	      7.84239126	      0.13687555	      1.57721630	      0.00000000	      0.00000000	     28.53767588	     -3.86607563	     -7.26320766	     60.62937061	      1.05818214	     16.98143907	      0.00000000	      0.00000000	    -19.72834647	      3.03220582	      3.07513793	     60.32710175	    -15.36019701	     12.04669486	     43.92069947	     86.47759139	      0.00000000	      0.00000000	     55.22310422	    -19.83787594	     17.39670050	     54.76681669	     85.74364253	      0.00000000	      0.00000000
      6.13000000	      4.80191266	     -3.90757232	     -0.59778506	     -0.35578424	      0.84713359	     -1.02937991	     54.48519801	      3.04369067	      0.26414257	      7.81776401	      0.13644572	      1.61406140	      0.00000000	      0.00000000	     28.38765544	     -3.75628874	     -7.60990919	     60.30233751	      1.05247434	     16.60749539	      0.00000000	      0.00000000	    -19.61286920	      2.75683223	      3.00407019	     59.28531849	    -15.03584439	     11.36350004	     43.85035801	     86.34909364	      0.00000000	      0.00000000	     54.10414223	    -19.67873649	     16.81736889	     54.79797438	     85.73436053	      0.00000000	      0.00000000
      6.13500000	      4.71306553	     -3.94376018	     -0.44238794	     -0.35520929	      0.84789856	     -1.02969659	     54.64901232	      2.89975533	      0.10096891	      7.99113474	      0.13947161	      1.86666927	      0.00000000	      0.00000000	     28.35151330	     -3.68653833	     -7.43980406	     60.09213115	      1.04880554	     16.73393808	      0.00000000	      0.00000000	    -19.44478168	      2.85547788	      2.85983124	     58.23499766	    -15.03744115	     11.23307244	     43.88505996	     86.44776414	      0.00000000	      0.00000000	     53.00013262	    -19.61684938	     16.86573991	     54.76176315	     85.63381644	      0.00000000	      0.00000000
      6.14000000	      4.61387017	     -3.89983972	     -0.40482059	     -0.35482194	      0.84851917	     -1.02961829	     54.83381644	      2.82330020	      0.06845111	      8.07967050	      0.14101685	      1.86589130	      0.00000000	      0.00000000	     28.31886996	     -3.67171118	     -7.51570833	     59.87976769	      1.04509910	     16.62011014	      0.00000000	      0.00000000	    -19.30445220	      2.79572332	      2.75951436	     57.29141565	    -14.85668145	     10.98270484	     43.63822251	     86.47416380	      0.00000000	      0.00000000	     51.92547173	    -19.53234243	     16.59334804	     54.70304794	     85.56610690	      0.00000000	      0.00000000
      6.14500000	      4.82335524	     -4.14464485	     -0.35752572	     -0.35427659	      0.85013440	     -1.02967990	     54.57212642	      2.94892587	     -0.22946947	      8.08164682	      0.14105135	      1.90487504	      0.00000000	      0.00000000	     27.88492729	     -3.93578977	     -7.48407013	     59.55974136	      1.03951359	     16.51809711	      0.00000000	      0.00000000	    -19.53377718	      3.07114690	      2.72518421	     56.35569841	    -14.64543285	     10.58848898	     43.53577765	     86.44442571	      0.00000000	      0.00000000	     50.76630049	    -19.33663355	     15.93131937	     54.60122128	     86.01865934	      0.00000000	      0.00000000
      6.15000000	      5.04797826	     -4.37323312	     -0.38913129	     -0.35378416	      0.85155084	     -1.02955906	     54.27894322	      3.13655864	     -0.42261694	      7.98997990	      0.13945146	      2.03048697	      0.00000000	      0.00000000	     27.44259649	     -4.23276043	     -7.54015193	     59.28028567	      1.03463617	     16.41822979	      0.00000000	      0.00000000	    -19.77173818	      3.27989010	      2.83247505	     55.43901042	    -14.53190314	     10.30671142	     43.40333965	     86.60644853	      0.00000000	      0.00000000	     49.71573797	    -19.20284767	     15.85412790	     54.53054308	     85.83842771	      0.00000000	      0.00000000
      6.15500000	      4.86442091	     -4.24608746	     -0.55877450	     -0.35361913	      0.85190847	     -1.02936153	     54.63116786	      3.16298908	     -0.48824023	      8.16643322	      0.14253115	      1.89125809	      0.00000000	      0.00000000	     27.53819327	     -4.19778046	     -7.75206132	     59.16466292	      1.03261817	     16.34876862	      0.00000000	      0.00000000	    -19.56506477	      3.07738181	      2.91619348	     54.48013378	    -14.62263469	     10.61166516	     43.32932357	     86.73505925	      0.00000000	      0.00000000	     48.81406511	    -19.23151102	     16.11983129	     54.35504804	     85.11264151	      0.00000000	      0.00000000
      6.16000000	      4.82967180	     -3.84303202	     -0.75769477	     -0.35357848	      0.85269076	     -1.02923086	     54.78250732	      3.00472011	      0.19211499	      8.26839996	      0.14431080	      1.79171369	      0.00000000	      0.00000000	     27.33631752	     -3.87545294	     -8.15991020	     58.75188317	      1.02541380	     16.10169604	      0.00000000	      0.00000000	    -19.55111020	      2.58636439	      2.86270100	     53.60955580	    -14.20561811	      9.82168050	     43.01067494	     86.53284399	      0.00000000	      0.00000000	     47.79672876	    -19.08088528	     15.60223587	     54.12515659	     85.78506458	      0.00000000	      0.00000000
      6.16500000	      5.08409499	     -4.24923288	     -0.56987548	     -0.35288756	      0.85432480	     -1.02934125	     54.36831946	      3.13953016	     -0.24928542	      8.05068885	      0.14051103	      1.78387144	      0.00000000	      0.00000000	     26.91359494	     -4.26387563	     -7.95508948	     58.55559502	      1.02198793	     15.96340297	      0.00000000	      0.00000000	    -19.82183744	      3.02976671	      2.81574718	     52.55024723	    -14.18269347	      9.71533186	     42.95241467	     86.50560435	      0.00000000	      0.00000000	     46.76748527	    -18.88424767	     15.25511728	     53.92191223	     85.87642218	      0.00000000	      0.00000000
      6.17000000	      4.95043648	     -4.17164378	     -0.62115681	     -0.35202923	      0.85491138	     -1.02946341	     54.57468350	      3.08860294	     -0.25026215	      8.17409758	      0.14266492	      1.98724893	      0.00000000	      0.00000000	     26.85499989	     -4.22847263	     -8.14177895	     58.31328328	      1.01775879	     15.93130380	      0.00000000	      0.00000000	    -19.58589917	      2.95258033	      2.76289576	     51.56632012	    -13.97834667	      9.34441207	     42.69680338	     86.41529432	      0.00000000	      0.00000000	     45.58255567	    -18.84103805	     15.20098386	     53.75296931	     85.98926396	      0.00000000	      0.00000000
      6.17500000	      4.84620533	     -4.06064746	     -0.61824016	     -0.35144443	      0.85558032	     -1.02949496	     54.70647903	      2.98851824	     -0.18007378	      8.14730181	      0.14219724	      1.93734065	      0.00000000	      0.00000000	     26.80268018	     -4.14508389	     -8.27971400	     58.07593953	      1.01361636	     15.67149042	      0.00000000	      0.00000000	    -19.41723574	      2.83251711	      2.67066112	     50.57442541	    -13.88699927	      9.27443492	     42.46951445	     86.36946479	      0.00000000	      0.00000000	     44.46808664	    -18.75451044	     15.01052088	     53.59481354	     85.83282626	      0.00000000	      0.00000000
      6.18000000	      5.17671169	     -4.35486584	     -0.67271957	     -0.35106811	      0.85717984	     -1.02935448	     54.32532259	      3.26030384	     -0.33706322	      8.10406553	      0.14144263	      1.91446156	      0.00000000	      0.00000000	     26.24622377	     -4.49653964	     -8.28272682	     57.79542088	      1.00872039	     15.70596194	      0.00000000	      0.00000000	    -19.79311475	      3.09374407	      2.78274188	     49.71522974	    -13.69131692	      8.87321420	     42.16021606	     86.39927966	      0.00000000	      0.00000000	     43.63860375	    -18.58585285	     14.90100613	     53.09034461	     85.98441690	      0.00000000	      0.00000000
      6.18500000	      4.95596540	     -4.11055818	     -0.60556932	     -0.35041502	      0.85744935	     -1.02967419	     54.65907152	      2.96358130	     -0.18265879	      8.22588942	      0.14356885	      1.96933831	      0.00000000	      0.00000000	     26.34184335	     -4.20096003	     -8.36225051	     57.59508377	      1.00522384	     15.60884412	      0.00000000	      0.00000000	    -19.45665389	      2.87209384	      2.59250727	     48.70500278	    -13.51321797	      8.62403943	     41.79955957	     86.15748616	      0.00000000	      0.00000000	     42.63128707	    -18.40154246	     14.75615862	     52.67515122	     85.78071345	      0.00000000	      0.00000000
